<?xml version="1.0" standalone="no"?>
<!DOCTYPE svg PUBLIC "-//W3C//DTD SVG 20010904//EN"
 "http://www.w3.org/TR/2001/REC-SVG-20010904/DTD/svg10.dtd">
<svg version="1.0" xmlns="http://www.w3.org/2000/svg"
 width="1014.000000pt" height="1020.000000pt" viewBox="0 0 1014.000000 1020.000000"
 preserveAspectRatio="xMidYMid meet">
<metadata>
Created by potrace 1.12, written by Peter Selinger 2001-2015
</metadata>
<g transform="translate(0.000000,1020.000000) scale(0.100000,-0.100000)"
fill="#7f859d" stroke="none">
<path d="M4919 9693 c-2 -16 1 -102 7 -183 l6 -85 -23 22 c-102 93 -266 56
-330 -74 -19 -40 -23 -64 -23 -138 0 -112 28 -191 88 -251 81 -82 218 -85 286
-7 l30 34 0 -31 c0 -31 0 -31 47 -28 l47 3 -2 55 c-4 96 -32 542 -38 618 l-6
72 -44 0 c-24 0 -44 -3 -45 -7z m-51 -299 c42 -29 65 -92 70 -190 6 -124 -18
-168 -107 -194 -74 -21 -150 37 -170 130 -25 117 -4 216 53 251 39 24 122 25
154 3z"/>
<path d="M3752 9507 c-27 -8 -32 -14 -28 -31 22 -84 204 -688 209 -692 6 -6
87 14 87 22 0 6 -175 601 -196 667 -16 50 -20 51 -72 34z"/>
<path d="M5400 9456 c-89 -45 -143 -155 -144 -292 -1 -137 74 -229 204 -254
81 -15 147 1 203 50 40 35 76 94 65 105 -2 2 -22 7 -44 10 -36 6 -41 4 -54
-19 -45 -85 -199 -88 -249 -4 -20 31 -38 114 -29 124 3 2 84 -5 181 -16 229
-26 215 -27 219 13 9 96 -23 207 -74 254 -61 58 -195 72 -278 29z m179 -74
c47 -23 72 -61 78 -114 l5 -44 -146 16 c-80 9 -148 18 -151 21 -3 3 5 26 18
50 41 78 125 108 196 71z"/>
<path d="M6035 9368 c-4 -10 -92 -375 -120 -495 -4 -19 1 -24 36 -33 23 -6 45
-8 49 -3 4 4 33 118 65 253 32 135 60 250 62 257 3 7 -11 16 -34 22 -48 14
-53 14 -58 -1z"/>
<path d="M6726 8983 c-92 -184 -166 -336 -164 -338 6 -5 67 -35 72 -35 3 0 11
12 19 26 l13 26 12 -41 c30 -97 173 -150 277 -102 83 38 175 166 197 275 33
166 -126 311 -275 251 -14 -6 -3 23 41 112 l61 120 -43 20 -42 21 -168 -335z
m271 -24 c72 -44 81 -117 29 -225 -45 -94 -102 -144 -164 -144 -24 0 -57 8
-73 17 -31 19 -69 85 -69 121 0 62 78 199 133 233 42 25 101 24 144 -2z"/>
<path d="M3330 9151 c-79 -25 -158 -88 -180 -146 -12 -31 -5 -110 10 -120 4
-3 24 2 45 10 33 14 36 19 30 45 -13 60 46 118 138 135 32 6 40 3 67 -24 51
-51 41 -76 -55 -133 -117 -70 -135 -86 -157 -135 -32 -73 -5 -161 64 -203 39
-24 113 -26 162 -6 48 20 113 82 127 121 l13 34 29 -25 c34 -29 40 -29 95 -4
46 21 48 26 30 65 -8 18 -16 24 -27 19 -39 -16 -45 -7 -120 161 -88 196 -106
216 -195 214 -28 0 -62 -4 -76 -8z m200 -283 c11 -24 20 -56 20 -73 0 -66 -84
-146 -156 -148 -67 -2 -109 81 -66 132 13 16 165 126 180 130 2 1 12 -18 22
-41z"/>
<path d="M2808 8867 c-21 -12 -38 -25 -38 -29 0 -6 207 -352 266 -445 l14 -23
38 24 c20 13 36 29 35 34 -2 10 -260 440 -272 454 -3 3 -23 -3 -43 -15z"/>
<path d="M7295 8554 l-150 -226 30 -24 c17 -13 35 -24 41 -24 6 0 79 101 162
224 l152 224 -40 26 c-22 14 -41 26 -42 26 -2 0 -70 -102 -153 -226z"/>
<path d="M2458 8636 c-59 -22 -115 -72 -144 -132 -23 -47 -26 -64 -22 -117 13
-156 157 -307 292 -307 93 1 191 65 222 146 18 49 16 128 -7 177 -15 33 -26
33 -62 2 -26 -24 -27 -27 -16 -64 27 -90 -31 -171 -122 -171 -87 0 -219 148
-219 246 0 100 113 166 196 115 l32 -19 33 28 c30 24 32 29 19 44 -39 48 -142
75 -202 52z"/>
<path d="M4930 8543 c-687 -29 -1295 -229 -1810 -596 -239 -171 -556 -470
-734 -692 -111 -139 -263 -366 -343 -515 -335 -618 -461 -1379 -352 -2125 112
-771 462 -1427 1057 -1979 545 -505 1125 -780 1867 -882 162 -23 693 -26 845
-6 513 69 936 211 1325 445 153 91 245 158 430 313 733 610 1140 1362 1237
2284 18 176 15 576 -6 750 -95 789 -413 1438 -986 2010 -542 542 -1153 853
-1885 959 -133 20 -454 43 -540 39 -22 -1 -69 -3 -105 -5z m490 -113 c635 -63
1187 -291 1705 -704 128 -103 397 -371 507 -506 404 -497 634 -1035 715 -1670
23 -186 23 -631 0 -820 -50 -395 -155 -747 -321 -1075 -80 -157 -195 -345
-211 -345 -5 1 -89 18 -185 39 l-175 38 -3 1797 -2 1796 -635 0 -635 0 0 -335
0 -335 -140 0 -140 0 0 822 c0 750 -1 823 -17 840 -21 24 -60 23 -73 -1 -7
-13 -10 -294 -10 -840 l0 -821 -340 0 -340 0 0 978 c0 869 -2 980 -16 1000
-17 24 -53 29 -72 10 -9 -9 -12 -170 -12 -665 l0 -653 -310 0 -310 0 -2 477
-3 477 -27 15 c-24 14 -28 14 -47 -3 -21 -19 -21 -27 -21 -493 l0 -473 -262 0
-263 -1 -255 -132 -255 -132 -3 -282 -2 -282 -173 -55 c-94 -30 -182 -57 -194
-61 l-23 -6 0 250 0 250 -162 -78 -163 -78 -5 -1528 -5 -1528 -95 -23 c-52
-13 -101 -23 -108 -24 -19 0 -144 198 -226 360 -178 351 -274 662 -328 1062
-26 196 -31 630 -10 813 92 785 398 1419 953 1973 424 424 898 706 1434 851
227 62 417 92 730 115 81 6 421 -3 535 -14z"/>
<path d="M7690 8492 c-46 -25 -80 -76 -80 -119 0 -41 16 -74 85 -173 64 -92
72 -113 51 -145 -13 -20 -25 -25 -61 -25 -40 0 -50 5 -94 48 -58 55 -70 90
-48 137 16 33 16 33 -18 59 -18 14 -36 26 -40 26 -12 0 -45 -86 -45 -119 0
-105 142 -240 253 -241 51 0 98 21 130 59 56 67 48 113 -48 251 -72 106 -81
139 -40 166 30 20 67 13 113 -23 48 -36 69 -85 55 -124 -11 -28 -9 -33 20 -59
32 -29 32 -29 49 -9 41 49 35 136 -15 201 -70 91 -190 132 -267 90z"/>
<path d="M1912 8149 c-87 -43 -151 -155 -138 -245 25 -182 237 -328 392 -269
131 50 193 185 147 321 -23 68 -129 174 -197 197 -69 24 -151 22 -204 -4z
m173 -88 c83 -38 155 -135 155 -208 0 -73 -68 -143 -139 -143 -79 0 -193 88
-226 175 -25 63 -14 110 36 157 35 33 46 38 87 38 26 0 65 -9 87 -19z"/>
<path d="M8048 7922 c-108 -97 -197 -182 -197 -188 -1 -5 13 -23 29 -39 l30
-29 33 30 c17 17 107 99 199 183 l168 152 -26 35 c-15 19 -29 34 -33 34 -3 0
-95 -80 -203 -178z"/>
<path d="M8400 7744 c-19 -8 -36 -17 -38 -19 -2 -2 8 -20 23 -39 22 -29 30
-34 45 -26 48 26 108 -1 145 -63 25 -43 31 -80 19 -112 -9 -22 -61 -47 -82
-40 -9 4 -44 38 -77 76 -92 106 -150 136 -225 117 -89 -23 -143 -112 -120
-197 17 -63 90 -137 158 -160 45 -15 50 -20 37 -31 -25 -21 -19 -76 14 -112
27 -31 30 -32 55 -19 27 15 34 35 16 46 -25 15 -1 40 133 133 78 55 151 109
161 121 31 34 33 109 4 173 -62 134 -169 195 -268 152z m-25 -271 c45 -43 83
-81 84 -84 0 -4 -18 -19 -41 -35 -31 -20 -55 -28 -84 -28 -111 2 -196 133
-129 199 44 45 76 35 170 -52z"/>
<path d="M1495 7616 c-17 -7 -45 -30 -63 -50 -106 -121 -101 -257 12 -316 40
-22 48 -23 85 -11 27 8 70 38 124 86 103 93 119 102 152 87 61 -28 54 -111
-14 -185 -39 -41 -77 -52 -126 -35 -16 6 -25 0 -44 -29 -22 -35 -23 -37 -5
-50 9 -7 33 -16 51 -19 84 -16 148 20 218 120 35 50 40 65 43 124 3 58 0 72
-20 102 -30 45 -83 80 -120 80 -43 0 -84 -25 -182 -111 -49 -44 -96 -79 -105
-79 -9 0 -27 7 -39 16 -33 23 -30 80 8 132 37 51 63 66 106 59 31 -5 37 -2 59
31 l25 37 -27 12 c-37 16 -101 15 -138 -1z"/>
<path d="M8670 7119 c-119 -41 -210 -147 -210 -243 0 -113 75 -216 171 -235
48 -10 120 -3 135 12 3 2 -3 21 -12 41 -17 34 -20 36 -66 36 -87 0 -138 46
-138 125 0 55 25 92 91 135 136 88 267 71 300 -40 14 -47 7 -79 -28 -120 -25
-31 -26 -32 -10 -66 9 -19 21 -34 26 -34 23 0 81 64 97 105 39 103 -28 243
-138 289 -50 21 -150 19 -218 -5z"/>
<path d="M795 6746 c-8 -19 -15 -39 -15 -44 0 -5 156 -68 348 -140 l347 -130
18 40 c10 23 14 44 10 48 -6 5 -308 119 -681 258 -7 2 -18 -11 -27 -32z"/>
<path d="M9007 6516 l-348 -101 6 -35 c4 -19 10 -40 13 -46 5 -8 53 2 157 32
224 65 291 59 335 -31 52 -108 23 -134 -222 -204 -202 -58 -199 -56 -177 -118
l10 -31 92 28 c51 15 143 42 205 60 130 38 171 68 192 138 26 84 -22 192 -104
238 -16 8 0 16 96 43 63 18 121 36 127 41 10 6 10 16 0 49 -7 22 -17 41 -23
40 -6 -1 -168 -47 -359 -103z"/>
<path d="M670 6398 c0 -2 -27 -122 -59 -268 -32 -146 -58 -266 -57 -266 0 -1
159 -36 351 -78 193 -42 357 -79 366 -81 12 -4 25 41 74 265 32 148 56 272 54
274 -3 3 -23 8 -45 12 l-40 6 -48 -213 c-26 -117 -49 -215 -51 -218 -7 -6
-225 41 -231 50 -2 4 14 94 37 199 23 105 39 193 36 196 -8 8 -87 18 -87 11 0
-11 -82 -382 -85 -385 -8 -9 -215 42 -215 52 0 7 20 104 45 216 25 112 45 205
45 206 0 1 -12 5 -27 8 -16 4 -36 9 -45 12 -10 3 -18 4 -18 2z"/>
<path d="M9060 5809 c-129 -21 -238 -38 -241 -38 -7 -1 6 -79 14 -88 6 -6 525
72 533 80 3 2 2 23 -2 46 -8 51 8 51 -304 0z"/>
<path d="M880 4520 c-195 -82 -361 -152 -368 -157 -10 -6 -9 -26 9 -103 12
-52 24 -98 28 -101 3 -4 110 6 236 22 127 15 244 28 260 28 17 0 -78 -37 -210
-83 -132 -45 -245 -85 -251 -87 -8 -3 -4 -35 12 -102 12 -54 25 -101 28 -105
8 -7 799 39 808 47 8 7 -24 157 -36 168 -5 5 -213 -17 -506 -54 -19 -2 79 39
219 92 140 52 256 97 258 99 5 4 -35 167 -42 174 -3 3 -115 -4 -248 -16 -133
-13 -251 -22 -262 -22 -11 1 93 40 230 87 138 47 251 86 252 87 7 6 -41 176
-50 175 -7 0 -172 -67 -367 -149z"/>
<path d="M8825 4513 c-14 -65 -28 -124 -31 -131 -2 -9 42 -34 129 -75 72 -34
170 -81 217 -105 l85 -42 -50 4 c-27 3 -135 6 -240 7 l-190 2 -29 -127 c-15
-70 -26 -129 -23 -132 4 -4 764 -184 778 -184 8 0 44 168 38 175 -3 2 -129 29
-280 60 -150 31 -278 58 -284 60 -5 2 127 3 295 2 l304 -2 15 63 c9 38 11 66
5 71 -5 4 -129 63 -276 131 -147 69 -266 125 -265 126 1 2 130 -31 286 -73
196 -52 286 -71 291 -64 9 15 43 161 39 165 -2 2 -173 43 -379 90 -206 48
-382 89 -391 92 -14 4 -21 -16 -44 -113z"/>
<path d="M1129 3599 c-178 -127 -328 -235 -332 -239 -5 -4 13 -50 39 -102 l47
-94 245 88 c135 48 247 87 249 85 2 -2 -94 -64 -213 -138 -119 -74 -218 -139
-221 -145 -2 -7 16 -53 41 -102 45 -89 46 -91 73 -82 16 5 190 57 388 116 198
59 362 108 364 111 4 3 -70 163 -75 163 -2 0 -445 -163 -489 -180 -46 -17 -27
-4 213 153 l222 146 -40 81 c-22 44 -46 80 -53 80 -7 0 -120 -36 -252 -80
-131 -44 -240 -78 -242 -76 -2 1 98 65 221 141 l224 139 -35 76 c-19 41 -38
78 -42 83 -4 4 -153 -97 -332 -224z"/>
<path d="M8650 3718 c-78 -27 -159 -150 -168 -255 -12 -141 30 -185 278 -297
178 -80 274 -116 313 -116 43 0 98 22 132 52 54 47 108 168 109 243 2 118 -47
161 -328 288 -207 94 -265 108 -336 85z m269 -268 c106 -49 202 -97 212 -106
48 -43 3 -113 -62 -99 -42 10 -386 170 -410 191 -39 35 -12 104 40 104 14 0
113 -40 220 -90z"/>
<path d="M8330 3127 c-87 -28 -194 -184 -194 -282 0 -81 35 -131 152 -213 163
-115 282 -193 326 -213 92 -42 190 -13 256 75 121 161 109 292 -38 394 -34 24
-65 41 -70 39 -4 -3 -29 -38 -57 -77 l-49 -73 25 -18 c88 -68 99 -81 99 -110
0 -37 -34 -72 -64 -67 -34 7 -397 260 -409 286 -8 18 -6 28 10 50 28 38 57 39
116 2 39 -24 52 -28 58 -18 4 7 28 42 54 78 l46 65 -28 23 c-72 58 -165 82
-233 59z"/>
<path d="M1630 2818 c-113 -128 -233 -265 -268 -305 l-63 -72 63 -80 c35 -44
66 -80 71 -80 4 -1 77 44 161 98 338 219 327 219 107 -2 l-194 -195 65 -79
c36 -43 72 -77 80 -77 8 1 171 90 361 198 l346 197 -57 70 c-31 38 -61 68 -67
65 -6 -2 -102 -64 -215 -138 -113 -74 -212 -138 -220 -143 -15 -9 137 162 165
185 8 7 55 56 104 109 l90 97 -56 70 c-30 38 -56 70 -57 72 -2 1 -93 -52 -202
-119 -109 -66 -215 -130 -234 -141 -20 -12 49 64 157 173 l192 194 -55 68
c-30 37 -58 67 -62 67 -4 0 -99 -105 -212 -232z"/>
<path d="M7508 2219 c-40 -33 -79 -67 -87 -74 -12 -11 15 -69 174 -377 103
-200 189 -365 191 -367 2 -2 37 25 78 59 l75 61 -40 62 c-21 34 -39 67 -38 72
0 6 23 29 52 52 l51 41 39 -31 c21 -18 49 -40 62 -51 l23 -19 71 59 c39 32 71
61 71 64 0 6 -604 483 -636 502 -8 5 -40 -15 -86 -53z m301 -327 l46 -42 -35
-30 c-19 -17 -37 -30 -41 -30 -5 0 -123 188 -168 270 -13 22 56 -36 198 -168z"/>
<path d="M8336 2154 l-58 -65 63 -59 c35 -32 69 -59 74 -60 6 0 36 29 68 65
l58 65 -63 59 c-35 33 -67 60 -73 60 -5 0 -36 -29 -69 -65z"/>
<path d="M2477 1810 c-119 -176 -220 -326 -223 -333 -6 -16 216 -176 282 -203
114 -48 230 9 295 144 21 43 23 109 4 155 -6 14 -2 17 24 17 43 0 81 21 121
66 63 72 76 145 40 219 -11 23 -32 53 -47 67 -34 31 -260 188 -270 188 -5 -1
-106 -145 -226 -320z m342 61 c38 -35 39 -55 6 -104 -29 -42 -67 -49 -115 -20
l-28 16 45 69 c25 37 49 68 53 68 5 0 22 -13 39 -29z m-184 -262 c46 -41 48
-84 4 -133 -38 -44 -60 -51 -96 -32 -61 33 -61 28 -3 115 30 44 56 80 57 81 1
0 18 -14 38 -31z"/>
<path d="M7082 1909 c-79 -49 -82 -52 -69 -73 8 -11 105 -166 217 -343 128
-205 206 -320 214 -316 88 53 147 96 143 106 -4 10 -414 666 -421 674 -1 1
-39 -20 -84 -48z"/>
<path d="M1935 1853 l-59 -65 69 -63 c39 -35 70 -62 70 -62 1 1 29 32 63 68
l63 67 -61 58 c-34 33 -67 60 -73 61 -7 1 -39 -28 -72 -64z"/>
<path d="M3077 1415 c-97 -195 -177 -357 -177 -360 0 -5 155 -85 164 -85 5 0
348 668 361 702 5 13 -10 25 -74 57 -44 23 -84 41 -88 41 -5 0 -88 -160 -186
-355z"/>
<path d="M6716 1700 c-62 -20 -306 -135 -306 -145 0 -20 325 -725 335 -725 11
0 152 64 161 73 3 3 -22 66 -55 140 -34 74 -61 139 -61 144 0 13 45 33 74 33
33 0 59 -34 109 -140 24 -52 50 -100 58 -106 11 -9 34 -3 104 29 50 22 92 42
94 44 2 1 -7 13 -20 25 -14 13 -51 73 -82 135 -62 121 -92 153 -142 153 l-33
0 20 38 c26 50 20 111 -19 187 -41 81 -88 117 -155 121 -29 2 -66 -1 -82 -6z
m55 -191 c28 -30 44 -80 37 -114 -3 -20 -44 -52 -71 -57 -15 -2 -27 15 -57 82
-21 46 -37 86 -35 88 5 5 78 31 88 32 5 0 22 -14 38 -31z"/>
<path d="M3605 1566 c-73 -33 -129 -133 -129 -231 0 -73 22 -119 105 -223 33
-40 62 -84 65 -98 13 -52 -24 -114 -69 -114 -13 0 -34 11 -47 25 -22 24 -23
29 -12 70 6 24 13 49 14 56 4 14 -152 73 -162 62 -15 -16 -40 -108 -40 -144 0
-77 46 -141 132 -185 104 -53 204 -53 275 2 44 33 93 138 100 211 7 78 -12
121 -106 236 -78 97 -90 138 -51 177 24 24 48 25 79 4 21 -15 23 -22 17 -70
l-6 -53 57 -21 c104 -39 108 -38 122 13 14 57 14 81 0 132 -15 54 -91 127
-154 149 -58 19 -149 20 -190 2z"/>
<path d="M6028 1452 c-53 -15 -99 -30 -103 -33 -3 -4 1 -167 10 -363 8 -197
15 -379 15 -407 0 -58 0 -58 111 -27 l79 21 -2 80 -3 80 50 13 c78 21 79 20
114 -55 l32 -69 90 24 c50 13 93 24 95 24 3 0 -79 166 -183 370 -103 203 -192
369 -198 369 -5 0 -54 -13 -107 -27z m115 -322 l66 -155 -46 -13 c-33 -10 -48
-11 -52 -3 -4 6 -13 73 -20 149 -7 75 -15 148 -18 162 -10 46 4 16 70 -140z"/>
<path d="M4150 1418 c-1 -7 -38 -185 -84 -395 l-82 -382 70 -15 c133 -29 107
-76 202 364 46 212 82 390 80 396 -2 5 -39 18 -83 27 -94 20 -103 21 -103 5z"/>
<path d="M5302 1342 c-98 -35 -141 -100 -142 -214 0 -106 29 -408 46 -465 21
-75 63 -119 132 -139 120 -35 287 14 336 99 32 54 40 102 31 182 l-7 65 -41 0
c-23 0 -66 -3 -94 -6 l-53 -7 0 -78 c0 -66 -3 -82 -20 -99 -37 -37 -94 -19
-104 33 -6 29 -36 393 -36 434 0 39 23 63 59 63 39 0 62 -30 70 -92 l6 -53 50
3 c28 1 71 5 97 8 l47 6 -5 46 c-21 170 -77 225 -234 230 -63 2 -99 -3 -138
-16z"/>
<path d="M4635 1338 c-24 -72 -236 -780 -233 -783 1 -1 44 -6 95 -9 l92 -7 10
38 c5 21 13 55 17 77 l7 38 69 -4 c38 -3 71 -8 73 -10 3 -3 9 -38 13 -79 l7
-74 93 -9 c51 -5 94 -7 97 -5 2 3 -21 186 -51 409 -29 222 -54 405 -54 406 0
1 -30 5 -67 9 -38 3 -89 8 -115 11 -35 4 -49 2 -53 -8z m119 -374 l8 -137 -47
5 c-25 3 -48 8 -50 10 -3 3 12 76 32 163 43 181 46 179 57 -41z"/>
</g>
</svg>
